<svg id="visual" viewBox="0 0 960 540" width="960" height="540" xmlns="http://www.w3.org/2000/svg" xmlns:xlink="http://www.w3.org/1999/xlink" version="1.1"><path d="M0 33L32 37.5C64 42 128 51 192 60C256 69 320 78 384 79.8C448 81.7 512 76.3 576 73.7C640 71 704 71 768 72.8C832 74.7 896 78.3 928 80.2L960 82L960 0L928 0C896 0 832 0 768 0C704 0 640 0 576 0C512 0 448 0 384 0C320 0 256 0 192 0C128 0 64 0 32 0L0 0Z" fill="#eaf6fe"></path><path d="M0 87L32 98.8C64 110.7 128 134.3 192 142.5C256 150.7 320 143.3 384 147.8C448 152.3 512 168.7 576 166C640 163.3 704 141.7 768 141.7C832 141.7 896 163.3 928 174.2L960 185L960 80L928 78.2C896 76.3 832 72.7 768 70.8C704 69 640 69 576 71.7C512 74.3 448 79.7 384 77.8C320 76 256 67 192 58C128 49 64 40 32 35.5L0 31Z" fill="#e6f4fe"></path><path d="M0 249L32 249C64 249 128 249 192 242.8C256 236.7 320 224.3 384 237C448 249.7 512 287.3 576 312.5C640 337.7 704 350.3 768 354.8C832 359.3 896 355.7 928 353.8L960 352L960 183L928 172.2C896 161.3 832 139.7 768 139.7C704 139.7 640 161.3 576 164C512 166.7 448 150.3 384 145.8C320 141.3 256 148.7 192 140.5C128 132.3 64 108.7 32 96.8L0 85Z" fill="#e2f3fe"></path><path d="M0 303L32 310.3C64 317.7 128 332.3 192 332.3C256 332.3 320 317.7 384 328.3C448 339 512 375 576 394.8C640 414.7 704 418.3 768 415.7C832 413 896 404 928 399.5L960 395L960 350L928 351.8C896 353.7 832 357.3 768 352.8C704 348.3 640 335.7 576 310.5C512 285.3 448 247.7 384 235C320 222.3 256 234.7 192 240.8C128 247 64 247 32 247L0 247Z" fill="#daeffe"></path><path d="M0 341L32 350C64 359 128 377 192 376.2C256 375.3 320 355.7 384 366.5C448 377.3 512 418.7 576 440.2C640 461.7 704 463.3 768 462.5C832 461.7 896 458.3 928 456.7L960 455L960 393L928 397.5C896 402 832 411 768 413.7C704 416.3 640 412.7 576 392.8C512 373 448 337 384 326.3C320 315.7 256 330.3 192 330.3C128 330.3 64 315.7 32 308.3L0 301Z" fill="#cfeafd"></path><path d="M0 541L32 541C64 541 128 541 192 541C256 541 320 541 384 541C448 541 512 541 576 541C640 541 704 541 768 541C832 541 896 541 928 541L960 541L960 453L928 454.7C896 456.3 832 459.7 768 460.5C704 461.3 640 459.7 576 438.2C512 416.7 448 375.3 384 364.5C320 353.7 256 373.3 192 374.2C128 375 64 357 32 348L0 339Z" fill="#c3e5fd"></path></svg>