<svg id="visual" viewBox="0 0 960 540" width="960" height="540" xmlns="http://www.w3.org/2000/svg" xmlns:xlink="http://www.w3.org/1999/xlink" version="1.1"><path d="M0 50L40 43.7C80 37.3 160 24.7 240 21.8C320 19 400 26 480 33.2C560 40.3 640 47.7 720 49.5C800 51.3 880 47.7 920 45.8L960 44L960 0L920 0C880 0 800 0 720 0C640 0 560 0 480 0C400 0 320 0 240 0C160 0 80 0 40 0L0 0Z" fill="#c3e5fd"></path><path d="M0 114L40 99.7C80 85.3 160 56.7 240 46C320 35.3 400 42.7 480 51.7C560 60.7 640 71.3 720 78.5C800 85.7 880 89.3 920 91.2L960 93L960 42L920 43.8C880 45.7 800 49.3 720 47.5C640 45.7 560 38.3 480 31.2C400 24 320 17 240 19.8C160 22.7 80 35.3 40 41.7L0 48Z" fill="#cbe9fd"></path><path d="M0 147L40 135.3C80 123.7 160 100.3 240 87.7C320 75 400 73 480 85.5C560 98 640 125 720 132.2C800 139.3 880 126.7 920 120.3L960 114L960 91L920 89.2C880 87.3 800 83.7 720 76.5C640 69.3 560 58.7 480 49.7C400 40.7 320 33.3 240 44C160 54.7 80 83.3 40 97.7L0 112Z" fill="#d4ecfe"></path><path d="M0 233L40 225C80 217 160 201 240 196.5C320 192 400 199 480 223.2C560 247.3 640 288.7 720 307.7C800 326.7 880 323.3 920 321.7L960 320L960 112L920 118.3C880 124.7 800 137.3 720 130.2C640 123 560 96 480 83.5C400 71 320 73 240 85.7C160 98.3 80 121.7 40 133.3L0 145Z" fill="#dcf0fe"></path><path d="M0 282L40 283.8C80 285.7 160 289.3 240 291.2C320 293 400 293 480 311.8C560 330.7 640 368.3 720 379C800 389.7 880 373.3 920 365.2L960 357L960 318L920 319.7C880 321.3 800 324.7 720 305.7C640 286.7 560 245.3 480 221.2C400 197 320 190 240 194.5C160 199 80 215 40 223L0 231Z" fill="#e1f3fe"></path><path d="M0 314L40 320.3C80 326.7 160 339.3 240 341.2C320 343 400 334 480 346.7C560 359.3 640 393.7 720 403.5C800 413.3 880 398.7 920 391.3L960 384L960 355L920 363.2C880 371.3 800 387.7 720 377C640 366.3 560 328.7 480 309.8C400 291 320 291 240 289.2C160 287.3 80 283.7 40 281.8L0 280Z" fill="#e4f4fe"></path><path d="M0 347L40 363.2C80 379.3 160 411.7 240 420.7C320 429.7 400 415.3 480 422.5C560 429.7 640 458.3 720 466.3C800 474.3 880 461.7 920 455.3L960 449L960 382L920 389.3C880 396.7 800 411.3 720 401.5C640 391.7 560 357.3 480 344.7C400 332 320 341 240 339.2C160 337.3 80 324.7 40 318.3L0 312Z" fill="#e7f5fe"></path><path d="M0 541L40 541C80 541 160 541 240 541C320 541 400 541 480 541C560 541 640 541 720 541C800 541 880 541 920 541L960 541L960 447L920 453.3C880 459.7 800 472.3 720 464.3C640 456.3 560 427.7 480 420.5C400 413.3 320 427.7 240 418.7C160 409.7 80 377.3 40 361.2L0 345Z" fill="#eaf6fe"></path></svg>